<mxfile host="app.diagrams.net" agent="Mozilla/5.0 (Windows NT 10.0; Win64; x64) AppleWebKit/537.36 (KHTML, like Gecko) Chrome/129.0.0.0 Safari/537.36" version="24.8.0">
  <diagram name="第 1 页" id="tLuAclvb4o0_s9nzhiLl">
    <mxGraphModel dx="1050" dy="530" grid="1" gridSize="10" guides="1" tooltips="1" connect="1" arrows="1" fold="1" page="1" pageScale="1" pageWidth="827" pageHeight="1169" math="0" shadow="0">
      <root>
        <mxCell id="0" />
        <mxCell id="1" parent="0" />
        <mxCell id="P3IjbnO4D2Q1EVdiHuiB-4" style="edgeStyle=orthogonalEdgeStyle;rounded=0;orthogonalLoop=1;jettySize=auto;html=1;exitX=1;exitY=0.5;exitDx=0;exitDy=0;" edge="1" parent="1" source="P3IjbnO4D2Q1EVdiHuiB-2" target="P3IjbnO4D2Q1EVdiHuiB-3">
          <mxGeometry relative="1" as="geometry" />
        </mxCell>
        <mxCell id="P3IjbnO4D2Q1EVdiHuiB-6" value="1.发送报警" style="edgeLabel;html=1;align=center;verticalAlign=middle;resizable=0;points=[];" vertex="1" connectable="0" parent="P3IjbnO4D2Q1EVdiHuiB-4">
          <mxGeometry x="-0.08" y="-3" relative="1" as="geometry">
            <mxPoint y="-13" as="offset" />
          </mxGeometry>
        </mxCell>
        <mxCell id="P3IjbnO4D2Q1EVdiHuiB-2" value="BD" style="rounded=0;whiteSpace=wrap;html=1;" vertex="1" parent="1">
          <mxGeometry x="80" y="210" width="120" height="60" as="geometry" />
        </mxCell>
        <mxCell id="P3IjbnO4D2Q1EVdiHuiB-9" style="rounded=0;orthogonalLoop=1;jettySize=auto;html=1;exitX=0.5;exitY=0;exitDx=0;exitDy=0;entryX=0;entryY=0.75;entryDx=0;entryDy=0;" edge="1" parent="1" source="P3IjbnO4D2Q1EVdiHuiB-3" target="P3IjbnO4D2Q1EVdiHuiB-7">
          <mxGeometry relative="1" as="geometry" />
        </mxCell>
        <mxCell id="P3IjbnO4D2Q1EVdiHuiB-10" value="2.派发工单：含维修建议id" style="edgeLabel;html=1;align=center;verticalAlign=middle;resizable=0;points=[];" vertex="1" connectable="0" parent="P3IjbnO4D2Q1EVdiHuiB-9">
          <mxGeometry x="-0.0815" y="1" relative="1" as="geometry">
            <mxPoint x="-15" y="-30" as="offset" />
          </mxGeometry>
        </mxCell>
        <mxCell id="P3IjbnO4D2Q1EVdiHuiB-11" value="3.处理工单，并评价结果" style="edgeLabel;html=1;align=center;verticalAlign=middle;resizable=0;points=[];" vertex="1" connectable="0" parent="P3IjbnO4D2Q1EVdiHuiB-9">
          <mxGeometry x="-0.0675" relative="1" as="geometry">
            <mxPoint x="43" y="10" as="offset" />
          </mxGeometry>
        </mxCell>
        <mxCell id="P3IjbnO4D2Q1EVdiHuiB-20" style="rounded=0;orthogonalLoop=1;jettySize=auto;html=1;exitX=1;exitY=0.5;exitDx=0;exitDy=0;entryX=0;entryY=0;entryDx=0;entryDy=0;" edge="1" parent="1" source="P3IjbnO4D2Q1EVdiHuiB-3" target="P3IjbnO4D2Q1EVdiHuiB-8">
          <mxGeometry relative="1" as="geometry" />
        </mxCell>
        <mxCell id="P3IjbnO4D2Q1EVdiHuiB-21" value="5.将优化后的处置建议（含id）发送给专业知识系统" style="edgeLabel;html=1;align=center;verticalAlign=middle;resizable=0;points=[];" vertex="1" connectable="0" parent="P3IjbnO4D2Q1EVdiHuiB-20">
          <mxGeometry x="-0.1492" relative="1" as="geometry">
            <mxPoint x="117" y="-10" as="offset" />
          </mxGeometry>
        </mxCell>
        <mxCell id="P3IjbnO4D2Q1EVdiHuiB-3" value="信号智能分析系统" style="rounded=0;whiteSpace=wrap;html=1;" vertex="1" parent="1">
          <mxGeometry x="380" y="210" width="130" height="60" as="geometry" />
        </mxCell>
        <mxCell id="P3IjbnO4D2Q1EVdiHuiB-22" style="edgeStyle=orthogonalEdgeStyle;rounded=0;orthogonalLoop=1;jettySize=auto;html=1;exitX=1;exitY=0.5;exitDx=0;exitDy=0;entryX=1;entryY=0.5;entryDx=0;entryDy=0;" edge="1" parent="1" source="P3IjbnO4D2Q1EVdiHuiB-7" target="P3IjbnO4D2Q1EVdiHuiB-8">
          <mxGeometry relative="1" as="geometry">
            <Array as="points">
              <mxPoint x="830" y="110" />
              <mxPoint x="830" y="340" />
            </Array>
          </mxGeometry>
        </mxCell>
        <mxCell id="P3IjbnO4D2Q1EVdiHuiB-7" value="智能维修系统" style="rounded=1;whiteSpace=wrap;html=1;" vertex="1" parent="1">
          <mxGeometry x="620" y="80" width="120" height="60" as="geometry" />
        </mxCell>
        <mxCell id="P3IjbnO4D2Q1EVdiHuiB-8" value="专业知识系统" style="rounded=0;whiteSpace=wrap;html=1;" vertex="1" parent="1">
          <mxGeometry x="660" y="310" width="120" height="60" as="geometry" />
        </mxCell>
        <mxCell id="P3IjbnO4D2Q1EVdiHuiB-16" style="edgeStyle=orthogonalEdgeStyle;rounded=0;orthogonalLoop=1;jettySize=auto;html=1;exitX=0;exitY=1;exitDx=0;exitDy=0;entryX=1;entryY=1;entryDx=0;entryDy=0;" edge="1" parent="1" source="P3IjbnO4D2Q1EVdiHuiB-3" target="P3IjbnO4D2Q1EVdiHuiB-3">
          <mxGeometry relative="1" as="geometry">
            <Array as="points">
              <mxPoint x="380" y="330" />
              <mxPoint x="510" y="330" />
            </Array>
          </mxGeometry>
        </mxCell>
        <mxCell id="P3IjbnO4D2Q1EVdiHuiB-19" value="4.根据评价优化处理建议" style="edgeLabel;html=1;align=center;verticalAlign=middle;resizable=0;points=[];" vertex="1" connectable="0" parent="P3IjbnO4D2Q1EVdiHuiB-16">
          <mxGeometry x="-0.0496" y="-5" relative="1" as="geometry">
            <mxPoint x="6" y="5" as="offset" />
          </mxGeometry>
        </mxCell>
      </root>
    </mxGraphModel>
  </diagram>
</mxfile>
